HIERARCHY
ROOT joint_Root
{
	OFFSET 0.0 0.0 0.0
	CHANNELS 6 Xposition Yposition Zposition Zrotation Xrotation Yrotation 
	JOINT Hips
	{
		OFFSET 4.5925 91.4895 -427.239
		CHANNELS 6 Xposition Yposition Zposition Zrotation Xrotation Yrotation 
		JOINT Spine
		{
			OFFSET 15.7357 0.0 0.0
			CHANNELS 6 Xposition Yposition Zposition Zrotation Xrotation Yrotation 
			JOINT Chest
			{
				OFFSET 8.98455 -0.406207 0.0
				CHANNELS 6 Xposition Yposition Zposition Zrotation Xrotation Yrotation 
				JOINT Neck
				{
					OFFSET 16.3773 0.0 0.0
					CHANNELS 6 Xposition Yposition Zposition Zrotation Xrotation Yrotation 
					JOINT Head
					{
						OFFSET 6.45672 0.0 0.0
						CHANNELS 6 Xposition Yposition Zposition Zrotation Xrotation Yrotation 
						End Site
						{
							OFFSET 0.0 0.0 0.0
						}
					}
				}
				JOINT Shoulder_L
				{
					OFFSET 12.9942 -0.242716 4.98039
					CHANNELS 6 Xposition Yposition Zposition Zrotation Xrotation Yrotation 
					JOINT UpperArm_L
					{
						OFFSET 5.34809 0.0 0.0
						CHANNELS 6 Xposition Yposition Zposition Zrotation Xrotation Yrotation 
						JOINT LowerArm_L
						{
							OFFSET 24.3286 1.87007e-05 0.0
							CHANNELS 6 Xposition Yposition Zposition Zrotation Xrotation Yrotation 
							JOINT Hand_L
							{
								OFFSET 22.2916 0.0 0.0
								CHANNELS 6 Xposition Yposition Zposition Zrotation Xrotation Yrotation 
								End Site
								{
									OFFSET 0.0 0.0 0.0
								}
							}
						}
					}
				}
				JOINT Shoulder_R
				{
					OFFSET 12.9945 -0.242716 -4.98039
					CHANNELS 6 Xposition Yposition Zposition Zrotation Xrotation Yrotation 
					JOINT UpperArm_R
					{
						OFFSET -5.34813 0.0 0.0
						CHANNELS 6 Xposition Yposition Zposition Zrotation Xrotation Yrotation 
						JOINT LowerArm_R
						{
							OFFSET -24.3289 0.000322201 0.0
							CHANNELS 6 Xposition Yposition Zposition Zrotation Xrotation Yrotation 
							JOINT Hand_R
							{
								OFFSET -22.2915 -0.000108084 0.0
								CHANNELS 6 Xposition Yposition Zposition Zrotation Xrotation Yrotation 
								End Site
								{
									OFFSET 0.0 0.0 0.0
								}
							}
						}
					}
				}
			}
		}
		JOINT UpperLeg_L
		{
			OFFSET -2.19248 -6.46944 0.0
			CHANNELS 6 Xposition Yposition Zposition Zrotation Xrotation Yrotation 
			JOINT LowerLeg_L
			{
				OFFSET 39.0811 0.0 -1.23785e-05
				CHANNELS 6 Xposition Yposition Zposition Zrotation Xrotation Yrotation 
				JOINT Foot_L
				{
					OFFSET 40.9854 0.0 -1.26872e-05
					CHANNELS 6 Xposition Yposition Zposition Zrotation Xrotation Yrotation 
					JOINT Toes_L
					{
						OFFSET 11.7543 0.0 0.0
						CHANNELS 6 Xposition Yposition Zposition Zrotation Xrotation Yrotation 
						End Site
						{
							OFFSET 0.0 0.0 0.0
						}
					}
				}
			}
		}
		JOINT UpperLeg_R
		{
			OFFSET -2.19251 6.46944 0.0
			CHANNELS 6 Xposition Yposition Zposition Zrotation Xrotation Yrotation 
			JOINT LowerLeg_R
			{
				OFFSET -39.0811 -0.00228153 -0.0401928
				CHANNELS 6 Xposition Yposition Zposition Zrotation Xrotation Yrotation 
				JOINT Foot_R
				{
					OFFSET -40.9854 0.0 0.0
					CHANNELS 6 Xposition Yposition Zposition Zrotation Xrotation Yrotation 
					JOINT Toes_R
					{
						OFFSET -11.7543 0.0 0.0
						CHANNELS 6 Xposition Yposition Zposition Zrotation Xrotation Yrotation 
						End Site
						{
							OFFSET 0.0 0.0 0.0
						}
					}
				}
			}
		}
	}
}
MOTION
Frames:	6
Frame Time:	0.0333333
0.000000 0.000000 0.000000 0.000000 0.000000 -0.000000 -3.501490 91.275900 1.511350 88.856500 8.091350 4.485300 15.735700 0.000005 -0.000001 103.358000 86.534500 -107.317000 8.984550 -0.406207 -0.000000 -0.944623 1.901540 -7.898950 16.377300 -0.000001 -0.000001 6.364510 -5.597410 5.598530 6.456720 -0.000001 -0.000000 -1.719880 -3.879560 -4.140520 12.994200 -0.242716 4.980390 -92.087800 5.090360 -67.663600 5.348090 -0.000007 -0.000001 -62.521000 18.847600 -4.772160 24.328600 0.000019 0.000005 5.949120 21.652400 -15.770800 22.291600 -0.000001 0.000005 15.055200 5.117270 4.714960 12.994500 -0.242716 -4.980390 95.095900 -12.336200 -67.344600 -5.348130 -0.000001 -0.000004 -36.977700 -66.542000 -79.715000 -24.328900 0.000322 -0.000009 -6.139040 -9.211450 -33.892500 -22.291500 -0.000108 -0.000004 18.820100 5.548620 -8.640020 -2.192480 -6.469440 -0.000000 -173.026000 -7.240770 -4.951590 39.081100 -0.000007 -0.000012 -0.195913 0.374135 27.638700 40.985400 -0.000006 -0.000013 -0.802131 11.357300 -68.552600 11.754300 -0.000000 0.000003 -0.000178 -0.001676 -16.641000 -2.192510 6.469440 -0.000001 177.955000 27.213500 179.273000 -39.081100 -0.002282 -0.040193 -0.026012 0.060242 25.954000 -40.985400 0.000008 0.000006 6.164890 8.015190 -71.217100 -11.754300 -0.000006 -0.000006 -0.003567 -0.046856 -18.478900
0.000000 0.000000 0.000000 0.000000 0.000000 -0.000000 -3.321300 91.305700 1.421900 88.808100 7.487510 4.370810 15.735700 0.000005 -0.000001 103.538000 86.481100 -107.288000 8.984550 -0.406207 -0.000000 -0.849637 1.928710 -7.482410 16.377300 -0.000001 -0.000001 6.341200 -5.539830 6.038060 6.456720 -0.000001 -0.000000 -1.744460 -3.737750 -3.873550 12.994200 -0.242716 4.980390 -92.217400 5.418990 -67.706500 5.348090 -0.000007 -0.000001 -62.270400 20.051900 -5.434820 24.328600 0.000019 0.000005 6.143300 21.190000 -16.582100 22.291600 -0.000001 0.000005 14.780000 5.128320 4.456800 12.994500 -0.242716 -4.980390 94.962100 -12.008400 -67.349200 -5.348130 -0.000001 -0.000004 -36.613000 -65.972100 -77.929700 -24.328900 0.000322 -0.000009 -6.837270 -9.825840 -35.087400 -22.291500 -0.000108 -0.000004 20.249400 5.558650 -9.119000 -2.192480 -6.469440 -0.000000 -173.123000 -7.580820 -4.980090 39.081100 -0.000007 -0.000012 -0.196218 0.375550 27.586500 40.985400 -0.000006 -0.000013 -0.741088 11.024400 -68.546900 11.754300 -0.000000 0.000003 -0.000189 -0.001764 -16.644200 -2.192510 6.469440 -0.000001 177.927000 26.941200 179.082000 -39.081100 -0.002282 -0.040193 -0.034471 0.077937 25.862600 -40.985400 0.000008 0.000006 5.933190 8.444540 -71.011100 -11.754300 -0.000006 -0.000006 -0.003314 -0.044108 -18.367000
0.000000 0.000000 0.000000 0.000000 0.000000 -0.000000 -3.117510 91.336300 1.306280 88.768200 6.719060 4.241810 15.735700 0.000005 -0.000001 103.565000 86.419600 -107.099000 8.984550 -0.406207 -0.000000 -0.735312 1.941040 -7.052880 16.377300 -0.000001 -0.000001 6.200940 -5.331620 6.248020 6.456720 -0.000001 -0.000000 -1.722220 -3.555340 -3.386450 12.994200 -0.242716 4.980390 -92.329600 5.721420 -67.801300 5.348090 -0.000007 -0.000001 -62.017300 21.378400 -6.101220 24.328600 0.000019 0.000005 6.294710 20.558800 -17.438400 22.291600 -0.000001 0.000005 14.535000 5.143640 4.094980 12.994500 -0.242716 -4.980390 94.665100 -11.458600 -67.669000 -5.348130 -0.000001 -0.000004 -36.383100 -65.172600 -75.282300 -24.328900 0.000322 -0.000009 -7.333790 -9.578550 -37.716000 -22.291500 -0.000108 -0.000004 21.651200 5.563370 -9.352380 -2.192480 -6.469440 -0.000000 -173.255000 -7.969670 -5.005360 39.081100 -0.000007 -0.000012 -0.191554 0.367478 27.531800 40.985400 -0.000006 -0.000013 -0.680144 10.606400 -68.546000 11.754300 -0.000000 0.000003 -0.000183 -0.001721 -16.642600 -2.192510 6.469440 -0.000001 177.882000 26.592400 178.840000 -39.081100 -0.002282 -0.040193 -0.042805 0.095416 25.794900 -40.985400 0.000008 0.000006 5.721470 8.980750 -70.795600 -11.754300 -0.000006 -0.000006 -0.003294 -0.043882 -18.357800
0.000000 0.000000 0.000000 0.000000 0.000000 -0.000000 -2.905240 91.358200 1.176760 88.737300 5.844150 4.242260 15.735700 0.000005 -0.000001 103.192000 86.305900 -106.515000 8.984550 -0.406207 -0.000000 -0.508170 1.925410 -6.634330 16.377300 -0.000001 -0.000001 5.885310 -4.992750 6.211880 6.456720 -0.000001 -0.000000 -1.598270 -3.308630 -2.863030 12.994200 -0.242716 4.980390 -92.370200 5.847780 -67.890800 5.348090 -0.000007 -0.000001 -61.832100 22.918100 -6.871230 24.328600 0.000019 0.000005 6.448680 20.018300 -18.272200 22.291600 -0.000001 0.000005 14.266500 5.153200 3.866620 12.994500 -0.242716 -4.980390 94.249600 -10.658200 -68.111400 -5.348130 -0.000001 -0.000004 -36.015400 -63.872100 -71.563700 -24.328900 0.000322 -0.000009 -8.217110 -9.198500 -42.088200 -22.291500 -0.000108 -0.000004 22.702300 5.563950 -9.382430 -2.192480 -6.469440 -0.000000 -173.384000 -8.369010 -4.914450 39.081100 -0.000007 -0.000012 -0.189970 0.364641 27.518800 40.985400 -0.000006 -0.000013 -0.633344 10.101800 -68.565300 11.754300 -0.000000 0.000003 -0.000186 -0.001744 -16.643500 -2.192510 6.469440 -0.000001 177.766000 26.230900 178.681000 -39.081100 -0.002282 -0.040193 -0.047816 0.105710 25.810900 -40.985400 0.000008 0.000006 5.610960 9.561730 -70.621900 -11.754300 -0.000006 -0.000006 -0.003353 -0.044534 -18.384300
0.000000 0.000000 0.000000 0.000000 0.000000 -0.000000 -2.663470 91.372500 1.062280 88.701200 4.855120 4.227430 15.735700 0.000005 -0.000001 102.461000 86.205100 -105.565000 8.984550 -0.406207 -0.000000 -0.297020 1.855510 -6.199760 16.377300 -0.000001 -0.000001 5.548770 -4.543420 6.019680 6.456720 -0.000001 -0.000000 -1.516650 -2.912120 -2.441860 12.994200 -0.242716 4.980390 -92.362700 5.840690 -67.929900 5.348090 -0.000007 -0.000001 -61.759200 24.259100 -7.655390 24.328600 0.000019 0.000005 6.640790 19.706600 -19.048000 22.291600 -0.000001 0.000005 13.886800 5.163720 3.613060 12.994500 -0.242716 -4.980390 93.684400 -9.515980 -68.719300 -5.348130 -0.000001 -0.000004 -34.564900 -61.837200 -66.136300 -24.328900 0.000322 -0.000009 -9.526960 -8.704700 -47.951900 -22.291500 -0.000108 -0.000004 23.667000 5.566230 -9.495660 -2.192480 -6.469440 -0.000000 -173.528000 -8.845800 -4.834820 39.081100 -0.000007 -0.000012 -0.189046 0.362374 27.550700 40.985400 -0.000006 -0.000013 -0.573286 9.535350 -68.628000 11.754300 -0.000000 0.000003 -0.000193 -0.001794 -16.645300 -2.192510 6.469440 -0.000001 177.626000 25.881800 178.489000 -39.081100 -0.002282 -0.040193 -0.057381 0.125245 25.854100 -40.985400 0.000008 0.000006 5.410870 10.275900 -70.435600 -11.754300 -0.000006 -0.000006 -0.003201 -0.042861 -18.316300
0.000000 0.000000 0.000000 0.000000 0.000000 -0.000000 -2.401970 91.381700 0.952357 88.715100 3.831320 4.241730 15.735700 0.000005 -0.000001 100.616000 86.109000 -103.513000 8.984550 -0.406207 -0.000000 -0.069171 1.631190 -5.788970 16.377300 -0.000001 -0.000001 5.190480 -4.025530 5.633540 6.456720 -0.000001 -0.000000 -1.517000 -2.470840 -1.946650 12.994200 -0.242716 4.980390 -92.363600 5.838590 -67.915400 5.348090 -0.000007 -0.000001 -61.656900 25.444500 -8.353610 24.328600 0.000019 0.000005 6.812560 19.390600 -19.790100 22.291600 -0.000001 0.000005 13.701800 5.164730 3.588620 12.994500 -0.242716 -4.980390 92.996600 -8.143950 -69.719500 -5.348130 -0.000001 -0.000004 -32.560300 -59.053800 -59.339900 -24.328900 0.000322 -0.000009 -10.905100 -7.740370 -55.039200 -22.291500 -0.000108 -0.000004 24.259200 5.568460 -9.608980 -2.192480 -6.469440 -0.000000 -173.707000 -9.429300 -4.703670 39.081100 -0.000007 -0.000012 -0.188993 0.361997 27.568700 40.985400 -0.000006 -0.000013 -0.481918 9.067890 -68.694900 11.754300 -0.000000 0.000003 -0.000194 -0.001804 -16.645700 -2.192510 6.469440 -0.000001 177.359000 25.592100 178.328000 -39.081100 -0.002282 -0.040193 -0.071744 0.154308 25.938000 -40.985400 0.000008 0.000006 5.150590 11.143300 -70.257700 -11.754300 -0.000006 -0.000006 -0.003024 -0.040868 -18.235100
